<svg width="92" height="95" viewBox="0 0 92 95" fill="none" xmlns="http://www.w3.org/2000/svg">
<path d="M1.07812 16.752H90.9219" stroke="black" stroke-width="2"/>
<path d="M56.4219 9.36987H66.4844" stroke="black" stroke-width="7" stroke-linecap="round"/>
<path d="M74.75 9.36987H84.8125" stroke="black" stroke-width="7" stroke-linecap="round"/>
<path d="M77.5625 55.5107C77.5625 73.6959 63.3788 88.3406 46 88.3406C28.6212 88.3406 14.4375 73.6959 14.4375 55.5107C14.4375 37.3256 28.6212 22.6809 46 22.6809C63.3788 22.6809 77.5625 37.3256 77.5625 55.5107Z" stroke="black" stroke-width="3"/>
<path d="M33.5417 74.9674C28.2815 76.5654 20.968 72.748 17.9688 70.6396C20.724 76.6682 30.1875 88.7253 46 88.7253C61.8125 88.7253 70.7969 77.1603 73.3125 71.3778C70.4375 73.5924 63.9262 78.2227 55.3438 73.9615C44.6157 68.635 40.1169 72.97 33.5417 74.9674Z" fill="black" stroke="black" stroke-width="3" stroke-linecap="round"/>
</svg>
